<svg width="21" height="21" viewBox="0 0 21 21" fill="none" xmlns="http://www.w3.org/2000/svg">
<path d="M1.32837 1.32788C0.68438 1.97187 0.68438 3.01598 1.32837 3.65997L8.32465 10.6562L1.32837 17.6525C0.68438 18.2965 0.68438 19.3406 1.32837 19.9846C1.97236 20.6286 3.01647 20.6286 3.66046 19.9846L10.6567 12.9883L17.653 19.9846C18.297 20.6286 19.3411 20.6286 19.9851 19.9846C20.6291 19.3406 20.6291 18.2965 19.9851 17.6525L12.9888 10.6562L19.9851 3.65997C20.6291 3.01598 20.6291 1.97187 19.9851 1.32788C19.3411 0.68389 18.297 0.683891 17.653 1.32788L10.6567 8.32416L3.66046 1.32788C3.01647 0.683891 1.97236 0.68389 1.32837 1.32788Z" fill="#F2F2F2"/>
</svg>
